<?xml version="1.0" encoding="UTF-8"?>
<svg id="Camada_2" data-name="Camada 2" xmlns="http://www.w3.org/2000/svg" viewBox="0 0 648.85 236.26">
  <defs>
    <style>
      .cls-1 {
        fill: #fff;
        stroke-width: 0px;
      }
    </style>
  </defs>
  <g id="Camada_1-2" data-name="Camada 1">
    <g>
      <path class="cls-1" d="M648.85,84.1c-6.99,6.85-13.57,14.2-21.07,20.43-8.46,7.03-11.18,15.24-10.92,26.16.69,29.14.07,58.3.33,87.45.06,6.57-1.48,12.02-6.32,16.39-.85.77-2.32,1.15-3.51,1.18-6.66.13-13.33-.09-19.98.17-3.89.15-4.78-1.54-4.74-5.04.13-12.66.07-25.32.04-37.98-.02-7.4-1.29-8.63-8.81-8.63-4.66,0-9.34-.15-13.99.15-8.38.54-11.56,3.95-11.69,12.34-.12,7.66-.38,15.34-.02,22.98.3,6.5-3.1,10.93-7.14,15.17-.58.61-1.8.82-2.73.84-6.99.08-13.99,0-20.98.1-2.8.04-3.91-1.2-3.84-3.9.07-2.5,0-5,0-7.5,0-40.98-.06-81.96.1-122.94.02-4.23.73-8.67,2.21-12.61,1.86-4.95,5.82-7.94,11.56-7.94,38.31.01,76.63-.04,114.94.03,2.01,0,4.02.88,6.03,1.35l.54,1.81ZM566.3,149.98v.04c2.83,0,5.67.02,8.5,0,6.29-.04,7.55-1.07,7.77-7.55.24-7.16.06-14.33.08-21.5.01-3.81-2.07-5.39-5.66-5.38-6.33.02-12.67-.07-19,.1-5.85.16-9.4,3.36-9.69,9.21-.31,6.15,0,12.32.04,18.49.03,4.6,2.61,6.56,6.96,6.59,3.67.03,7.33,0,11,0Z"/>
      <path class="cls-1" d="M.24,82.26c2.48-.46,4.96-1.31,7.45-1.33,14.66-.13,29.38.67,43.98-.3,11.02-.73,18.74,3.32,25.57,11.25,4.87,5.65,10.34,10.81,15.8,15.91,1.24,1.16,3.66,1.83,5.29,1.51.94-.18,1.94-2.78,2-4.32.24-6.16.18-12.33.1-18.49-.05-3.81,1.89-5.51,5.48-5.57,4.33-.07,8.67-.1,13,0,9.95.2,14.85,4.72,16.02,14.75.23,1.98.21,3.99.21,5.99.01,42.49.01,84.98,0,127.48,0,6.64-.03,6.66-6.56,6.73-4.17.05-8.33.02-12.5,0-10.15-.02-15.1-4.44-15.42-14.76-.38-12.32-.39-24.66-.14-36.99.13-6.44-1.74-11.62-6.39-16.1-7.56-7.28-14.87-14.83-22.31-22.23-.79-.79-1.75-1.41-3.9-3.11-.79,3.8-1.9,6.66-1.91,9.54-.14,25.66-.07,51.32-.09,76.99,0,6.55-.03,6.57-6.55,6.65-4,.05-8,.02-12,.02-10.87-.01-15.85-4.98-15.86-16.01-.03-32.16-.09-64.32.06-96.48.03-5.59-1.68-9.84-5.73-13.7-8.79-8.36-17.26-17.06-25.86-25.62.08-.6.16-1.19.24-1.79Z"/>
      <path class="cls-1" d="M305.25,112.99c.67-3.28,1.41-5.43,1.5-7.6.2-4.82,0-9.66.09-14.49.13-6.61,3.3-9.87,9.82-9.99,5.83-.11,11.66-.09,17.49.01,6.86.12,7.36.66,7.37,7.5.01,40.82,0,81.64,0,122.45,0,8.12,0,16.24,0,24.96-11.2,0-21.65.12-32.09-.21-.92-.03-2.48-3.07-2.5-4.73-.18-17.99-.12-35.99-.12-53.98,0-7-.04-13.99,0-20.99.03-3.81-1.4-5.98-5.56-5.92-7.33.11-14.66-.09-21.99.11-6.11.17-7.16,1.4-7.16,7.55-.02,23.99-.15,47.98.1,71.97.05,5.15-1.53,6.62-6.53,6.34-7.64-.42-15.33-.33-22.98-.07-4.07.14-5.09-1.49-5.07-5.25.13-17.83.05-35.65.05-53.48,0-29.66,0-59.31,0-88.97,0-6.04.82-7.08,6.79-7.24,7.82-.21,15.68-.37,23.48.09,2.71.16,5.86,1.65,7.87,3.54,8.84,8.32,17.32,17.02,25.96,25.57.69.68,1.5,1.23,3.48,2.82Z"/>
      <path class="cls-1" d="M480.11,129.07c-1.07,19.09-1.2,38.29-3.5,57.23-1.76,14.49-10.1,26.34-22.3,34.58-6.19,4.18-13.61,6.51-20.11,10.29-13.31,7.74-27.78,3.78-41.75,4.61-5.05.3-12.13,1.41-14.71-1.27-2.67-2.77-1.03-9.72-1.2-14.84-.07-2.16-.06-4.33.08-6.49.42-6.71,4.9-11.46,11.72-11.78,8.98-.42,17.98-.22,26.96-.62,10.49-.46,24.09-10.83,26.76-20.96,1.8-6.83,2.94-13.96,3.26-21.01.52-11.63.15-23.31.14-34.97,0-6.77-1.25-8.15-8.14-8.21-13.66-.11-27.31-.04-40.97-.04-4.83,0-9.66-.07-14.49,0-3.48.05-5.44-1.58-5.53-4.99-.15-5.98-.55-12.02.04-17.94.78-7.76,6.27-11.73,15.25-11.75,24.32-.06,48.63-.02,72.95-.02,2.5,0,5-.06,7.49.02,5.76.19,7.04,1.45,7.05,7.15.04,13.66.01,27.31.01,40.97.33.02.67.04,1,.05Z"/>
      <path class="cls-1" d="M203.16,160.61c0,22.16.02,44.33,0,66.49-.01,9.81.64,8.69-9,8.76-4.83.04-9.67.03-14.5,0-7.04-.04-9.52-2.38-10.09-9.5-.09-1.16-.05-2.33-.05-3.5,0-44.5,0-88.99,0-133.49,0-7.43.98-8.46,8.24-8.49,6.16-.03,12.33.11,18.5.08,3.35-.02,5.41,1.49,6,4.76.44,2.44.86,4.92.87,7.39.07,22.5.04,45,.04,67.49Z"/>
      <path class="cls-1" d="M169.09,19.55c-7.96-1.51-6.24,6.68-10.31,10.56-3.14-4.83-6.03-9.28-8.93-13.73-.47-.02-.93-.03-1.4-.05-.52,1.85-1.42,3.68-1.48,5.55-.19,6.15-.21,12.32,0,18.47.12,3.84-1.34,5.55-5.21,5.44-3.93-.1-4.37-2.28-4.33-5.64.12-11.14-.15-22.29-.09-33.44,0-1.89.83-5.39,1.39-5.41,2.97-.12,6.01.5,8.96,1.17.78.17,1.24,1.49,2,2.11,8.3,6.81,10.2,6.44,18.76-1.25,1.91-1.72,5.56-1.61,8.46-2,.3-.04,1.31,2.28,1.32,3.52.08,11.8-.16,23.6.12,35.39.08,3.45-.97,5.33-4.16,5.3-3-.03-5.31-1.17-5.15-5.16.29-6.94.08-13.9.08-20.83Z"/>
      <path class="cls-1" d="M420.09.88c8.81-2.62,14.27,3.87,19.51,10.63,2.99,3.85,3.05,18.34.3,22.74-6.79,10.87-17.61,15.09-29.97,11.3-1.36-.42-2.98-2.82-3.01-4.33-.29-12.32-.32-24.66-.14-36.98.02-1.13,1.87-3,3.08-3.2,2.92-.47,5.97-.15,10.24-.15ZM433.04,24.31c-.72-3.21-.95-6.64-2.28-9.56-2-4.39-6.31-5.14-10.61-4.53-4.11.59-4.26,3.99-4.22,7.29.05,4.64-.12,9.29.09,13.92.2,4.62,2.26,6.12,6.79,5.42,7.18-1.12,9.72-4.35,10.23-12.53Z"/>
      <path class="cls-1" d="M492.49.38c2.81.59,6.53.25,8.27,1.94,5.76,5.62,11.26,11.58,11.04,20.7-.32,13.1-8.3,22.85-19.18,22.92-12.07.08-19.86-9.62-19.57-23.3.11-5.27,2.5-11.15,5.6-15.52,2.89-4.07,7.24-8.47,13.84-6.76ZM502.3,23.49c.31-5.5-1.15-10.45-6.5-12.35-2.64-.94-6.85-.34-9.18,1.27-6.14,4.22-6.45,16.13-1.19,21.49,4.89,4.98,13.67,3.09,15.85-3.55.71-2.16.7-4.57,1.02-6.86Z"/>
      <path class="cls-1" d="M355.85.88c8.71,0,13.04,3.98,16.8,12.05,4.16,8.93,2.31,17.18-1.59,24.86-4.58,9.02-21.44,12.62-29.56,1.35-8.1-11.24-6.33-24.53,3.46-34.43,3.53-3.57,6.84-3.78,10.89-3.83ZM346.01,23.61c.04,7.72,1.34,10.78,5.49,12.15,4.13,1.36,8.22,1.76,11.47-2.03,3.76-4.37,4.52-11.93,1.75-16.92-3.62-6.5-8.92-8.3-14.19-4.73-4.11,2.78-4.62,7.05-4.52,11.52Z"/>
      <path class="cls-1" d="M211.35,22.69c0-5.99.12-11.98-.05-17.96-.08-2.8.86-3.91,3.67-3.88,7.65.09,15.31.18,22.96-.03,4.24-.12,3.9,2.53,3.86,5.25-.05,3.21-1.25,4.98-4.88,4.56-3.45-.4-6.96-.6-10.43-.51-1.53.04-3.72.6-4.39,1.68-.88,1.42-1.15,3.83-.52,5.33.39.93,2.9,1.25,4.5,1.35,2.01.13,4.35-.91,6-.19,1.45.64,2.14,3.01,3.16,4.62-1.33.76-2.58,1.76-4,2.24-2.04.68-4.73.37-6.18,1.61-1.94,1.65-3.9,4.36-3.98,6.67-.04,1.28,3.61,3.49,5.83,3.85,3.02.49,6.28-.25,9.39-.74,3.09-.49,5.32-.09,5.68,3.59.32,3.34-.68,5.65-4.45,5.68-7.15.05-14.31.05-21.46,0-3.34-.02-4.66-1.9-4.61-5.15.09-5.99.02-11.98.02-17.97h-.1Z"/>
      <path class="cls-1" d="M290.98.89c3.99,0,7.98.02,11.97,0,2.44-.02,4.79-.11,4.65,3.45-.12,3.02-.37,5.69-4.29,6.04-7.17.66-7.37.89-7.35,8.01.02,7.48.02,14.97.29,22.44.13,3.45-1.17,4.92-4.54,4.96-3.44.04-5.29-1.22-5.2-4.97.2-7.98.1-15.96.34-23.94.15-4.77-1.47-7.14-6.64-6.82-2.78.17-6.33.59-6.7-3.94-.28-3.36.52-5.43,4.51-5.23,4.31.21,8.64.05,12.97.05,0-.01,0-.03,0-.04Z"/>
    </g>
  </g>
</svg>