<?xml version="1.0" encoding="UTF-8"?>
<svg id="Camada_1" data-name="Camada 1" xmlns="http://www.w3.org/2000/svg" viewBox="0 0 484.14 153.23">
  <defs>
    <style>
      .cls-1 {
        fill: #fefefe;
      }

      .cls-1, .cls-2, .cls-3, .cls-4, .cls-5, .cls-6, .cls-7 {
        stroke-width: 0px;
      }

      .cls-2 {
        fill: #fdfefe;
      }

      .cls-3 {
        fill: #f7fafd;
      }

      .cls-4 {
        fill: #f5fbfd;
      }

      .cls-5 {
        fill: #f7fbfd;
      }

      .cls-6 {
        fill: #eff5fa;
      }

      .cls-7 {
        fill: #f6fbfd;
      }
    </style>
  </defs>
  <path class="cls-2" d="M325.94,60.51c.02,4.66-.16,9.33.11,13.98.19,3.26-1.16,3.87-4.07,3.84-12.99-.14-25.98.04-38.96-.2-3.35-.06-4.31.89-4.07,4.11.27,3.64.24,7.33.01,10.98-.17,2.69.8,3.33,3.36,3.3,10.66-.13,21.32.08,31.97-.13,3.13-.06,4.12.81,3.8,3.88-.47,4.58,1.92,10.71-.99,13.35-2.49,2.27-8.52.71-12.98.74-6.99.05-14,.24-20.98-.09-3.68-.17-4.52,1.11-4.25,4.47.29,3.64.28,7.34-.02,10.98-.26,3.14.78,3.89,3.85,3.84,12.99-.18,25.98.06,38.96-.18,3.57-.06,4.72.96,4.3,4.43-.53,4.4,1.86,10.32-1.04,12.85-2.49,2.17-8.23.71-12.53.71-17.98-.02-35.96-.09-53.95-.15-.14-7.26-.28-14.52-.43-21.78-.01-8.33-.03-16.66-.04-24.99.06-13.29.22-26.58.11-39.86-.03-3.13.59-4.24,4-4.21,21.27.17,42.55.1,63.82.11Z"/>
  <path class="cls-1" d="M208.16,66.47c0,.66,0,1.32,0,1.98.99,1.35.98,2.7-.02,4.04,0,.33,0,.66,0,.99.51.67.51,1.34,0,2-.11,18.47-.15,36.94-.41,55.41-.04,3.02,1.6,2.61,3.43,2.61,12.49-.01,24.98.12,37.46-.1,3.46-.06,4.8.8,4.38,4.37-.52,4.41,1.84,10.31-.98,12.87-2.42,2.19-8.2.7-12.5.76-7.49.1-14.97.14-22.46.2-8.8-.06-17.6-.24-26.4-.11-2.87.04-3.62-.82-3.58-3.63.12-8.13-.07-16.27-.14-24.4.05-19.45.19-38.9.07-58.34-.02-3.5.49-5.2,4.49-4.72,3.28.39,6.69.42,9.96,0,4.91-.64,7.54.66,6.71,6.08Z"/>
  <path class="cls-2" d="M427.8,114.49c.12,0,.24,0,.36,0h-.38s.01,0,.02,0Z"/>
  <path class="cls-2" d="M426.29,111.94c-.32.79-.46,1.49-.16,1.97l2.39-7.69c-.72,1.92-1.45,3.83-2.23,5.73Z"/>
  <path class="cls-2" d="M483.02,147.38c-4.3-11.78-8.68-23.54-13.04-35.3-3.4-9.18-7.46-18.11-10.01-27.59-1.3-3.11-2.67-6.19-3.88-9.33-1.81-4.72-2.22-11.12-5.61-13.79-3.71-2.93-10.17-.8-15.42-.86-10.56-.12-10.37.03-14.06,9.99-5.83,15.71-11.93,31.32-17.92,46.97-4.01,11.13-8.02,22.27-12.23,33.94,6.76,0,13.04-.04,19.31.02,1.9.02,2.45-1.02,2.98-2.62,1.51-4.53,3.48-8.92,4.78-13.5.87-3.03,2.15-4.14,5.43-4.02,8.15.28,16.32.1,24.48.1q7.98,0,10.09,8.06c1.1,1.5,1.7,3.2,1.97,5.03.16,3.3-.15,7.45,4.08,7.95,6.31.75,12.8,1.67,19.04-.82,2.26-1.39.49-2.89,0-4.22ZM428.17,114.49c-.12,0-.24,0-.36,0,0,0-.01,0-.02,0h-1.83s.18-.59.18-.59c-.31-.47-.17-1.18.16-1.97.78-1.9,1.51-3.81,2.23-5.73l9-29.02,11.84,37.29-21.19.02Z"/>
  <path class="cls-1" d="M374.99,151.3c-5.62.04-11.24.06-16.85.11-1.49.01-3.06.23-3.17-1.96.04-22.76.04-45.51.17-68.27.01-2.47-.78-3.06-3.13-3.01-6.81.16-13.63,0-20.44.14-2.52.05-3.62-.64-3.51-3.36.2-4.81.09-9.63.11-14.45.31.03.61-.04.88-.2,22.82.06,45.63.21,68.45.08,3.71-.02,4.95.82,4.61,4.61-.34,3.79.03,7.64.08,11.47-.29,2.65-2.32,1.75-3.79,1.76-6.79.03-13.58.08-20.37-.1-2.42-.07-3.1.68-3.06,3.05.17,10.43.17,20.86.23,31.28-.07,12.95-.15,25.89-.23,38.84Z"/>
  <path class="cls-3" d="M434.99,23.46c-1.29.65-.78,1.96-1.09,2.97-1.27,1.16-1.36,2.84-1.93,4.32-.57,1.5-1.1,2.96-3.37,2.8-1.98-.14-2.27-1.29-2.83-2.75-1.73-4.51-3.67-8.94-5.52-13.4-1.92-5.51-3.83-11.01-5.74-16.5,3.12-1.23,4.53,0,5.51,2.85,2.7,7.82,5.66,15.56,8.75,23.96,2.16-5.6,4.22-10.9,6.23-16.21,1.09-2.89,2.15-5.79,3.09-8.73.63-1.96,1.95-2.78,3.75-2.2,2.64.85.52,2.37.17,3.48-1.22,3.84-2.61,7.63-3.94,11.44.26,3.16-1.15,5.67-3.09,7.97Z"/>
  <path class="cls-6" d="M407.92,30.47c.1-8.79.17-17.58.33-26.36.03-1.44-.86-3.61,1.97-3.62,3,0,1.73,2.31,1.76,3.62.17,8.12.17,16.25.23,24.38-.05.82-.07,1.65-.17,2.47-.12,1.02.5,2.35-1.39,2.57-2.49.28-2.59-1.34-2.74-3.04Z"/>
  <path class="cls-1" d="M55.27,114.8c11.95-2.19,19.96-8.3,22.18-18.69,2.3-10.8.67-21.07-8.36-28.89-1.34-.92-2.68-1.84-4.02-2.76-7.62-3.38-15.6-4.32-23.9-4.08-10.77.31-21.56.08-32.34.08q-7.13,0-7.71,7c-1.3,3.33-1.66,6.66,0,9.99.09,1.81.27,3.63.27,5.44.01,21.4.08,42.8-.1,64.2-.03,3.53.89,4.63,4.38,4.4,4.46-.29,8.96-.08,13.44-.06,1.5,0,3.09.24,3.11-2-.07-9.65-.16-19.3-.17-28.95,0-1.13-.67-2.53,1.41-3.1,6.86-1.87,16.1,1.63,19.85,7.84,4.68,7.76,9.29,15.56,13.91,23.35.95,1.6,1.77,2.96,4.1,2.9,6.75-.16,13.5-.06,21.47-.06-9.89-12.55-13.76-28.16-27.5-36.63ZM48.83,100.51c-8.2,1.91-16.51.51-24.75.98-1.91.11-2.11-.93-2.1-2.45.05-6.15.08-12.3-.01-18.44-.03-1.97.67-2.59,2.59-2.53,3.82.12,7.64.03,11.46.03,0,.11,0,.22,0,.33,3.65,0,7.31-.14,10.95.03,5.64.27,9.8,4.25,10.13,9.45.47,7.25-2.15,11.16-8.28,12.59Z"/>
  <path class="cls-2" d="M175.13,91.46c-.34-.55-.81-1.06-1-1.66-6-19.05-22.52-30.68-42.82-31.08-12.69-.25-23.68,4.32-33.25,12.49-11.85,13-15.27,28.29-12.05,45.26,4.09,21.52,20.46,34.05,38.97,35.8,23.23,2.2,41.41-8.99,48.79-29.23,3.77-10.32,3.41-20.95,1.35-31.58ZM155.11,105.73c0,13.03-5,22.6-14.68,25.55-17.74,5.4-33.27-2.45-34.39-23.45-.35-6.57.57-12.92,3.94-18.64,6.06-10.27,16.67-12.31,26.82-10.29,10.95,2.17,17.92,11.29,18.3,22.33.05,1.5,0,3,.01,4.5Z"/>
  <path class="cls-7" d="M354.05.37c-7.77-.63-14.81.45-19.05,8.11-1.83,4.67-2.34,9.37-.92,14.31,1.85,6.42,8.14,11.43,14.96,11.57,6.55.14,12.98-4.5,15-10.81,2.66-8.31.58-18.29-9.98-23.18ZM349.21,30.37c-6.97.6-11.48-5.49-11.29-14.25.16-7.26,5.41-12.94,11.64-12.59,6.39.36,11.62,6.58,11.49,13.67-1.12,8.43-4.25,12.51-11.84,13.16Z"/>
  <path class="cls-7" d="M324.21,11.49c-1.35-3.14-2.9-6.21-3.98-9.44-.52-1.56-1.35-1.65-2.53-1.55-1.03.09-2.08-.36-2.73,1.3-3.78,9.74-7.77,19.4-11.66,29.1-.34.84-.9,2.16.44,2.42,1.05.21,2.62.97,3.34-.96.79-2.13,1.75-4.21,2.69-6.28.39-.86.19-2.36,1.41-2.4,4.15-.15,8.54-.88,12.39.2,2.46.69,3.07,4.63,3.31,7.6,1.23,2.48,3.24,2.27,5.64,1.59-2.8-7.25-5.56-14.42-8.32-21.58ZM312.18,20.22c1.75-4.65,3.48-9.27,5.34-14.22,1.86,4.86,3.59,9.38,5.44,14.22h-10.79Z"/>
  <path class="cls-5" d="M475.06,14.47c-.23-5.89-4.81-12.14-10.28-13.78-6.85-2.05-14.21.58-17.96,6.04-2.92,4.25-2.79,8.99-2.94,13.74.42,1.56.85,3.13,1.27,4.69,3.46,9.11,10.71,12.32,20.34,9,1.99-1.4,4.66-2,5.54-4.71.26-1.01.99-1.59,1.86-2.04,2.1-4.09,2.35-8.46,2.17-12.95ZM460,30.41c-6.56.51-12-5.82-11.97-13.44.03-7.28,5.2-13.27,11.63-13.46,6.51-.19,11.37,5.54,11.39,13.41.42,9.84-5.74,13.07-11.05,13.49Z"/>
  <path class="cls-4" d="M391.98,27.91c3.2-8.5,6.11-16.21,9.02-23.92.34-.91.61-1.87,1.07-2.73.73-1.34,2.12-.88,3.1-.65,1.3.31.9,1.51.55,2.43-3.61,9.43-7.23,18.85-10.86,28.26-.49,1.27-1.11,2.3-2.84,2.19-1.76-.11-2.43-.9-3.06-2.54-3.41-8.94-7.08-17.78-10.49-26.72-.39-1.03-1.8-2.82.17-3.61,1.82-.73,3.44-.06,4.22,2.11,2.89,8.12,5.86,16.2,9.12,25.17Z"/>
</svg>